<svg width="125" height="37" viewBox="0 0 125 37" fill="none" xmlns="http://www.w3.org/2000/svg">
<rect width="125" height="37" rx="18.5" fill="#9953F1"/>
<path d="M48.0762 21.9268V23H40.543V21.9268H48.0762ZM40.7549 21.9268V25.4473H39.4492L39.4424 21.9268H40.7549ZM49.2246 21.9268L49.2109 25.4404H47.9053V21.9268H49.2246ZM46.7842 13.0469V14.127H42.4229V13.0469H46.7842ZM47.9189 13.0469V23H46.6064V13.0469H47.9189ZM41.9717 13.0469H43.291L43.0859 17.0527C43.0586 17.6543 43.0016 18.2103 42.915 18.7207C42.8285 19.2266 42.7214 19.6891 42.5938 20.1084C42.4661 20.5277 42.3203 20.9036 42.1562 21.2363C41.9922 21.5645 41.8167 21.8493 41.6299 22.0908C41.443 22.3278 41.2471 22.5238 41.042 22.6787C40.8415 22.8291 40.6387 22.9362 40.4336 23H39.832V21.9268H40.2559C40.3743 21.7992 40.5088 21.6146 40.6592 21.373C40.8141 21.1315 40.9668 20.8193 41.1172 20.4365C41.2721 20.0492 41.4066 19.5775 41.5205 19.0215C41.639 18.4655 41.7188 17.8092 41.7598 17.0527L41.9717 13.0469ZM50.25 19.3838V19.2266C50.25 18.6934 50.3275 18.1989 50.4824 17.7432C50.6374 17.2829 50.8607 16.8841 51.1523 16.5469C51.444 16.2051 51.7972 15.9408 52.2119 15.7539C52.6266 15.5625 53.0915 15.4668 53.6064 15.4668C54.126 15.4668 54.5931 15.5625 55.0078 15.7539C55.4271 15.9408 55.7826 16.2051 56.0742 16.5469C56.3704 16.8841 56.596 17.2829 56.751 17.7432C56.9059 18.1989 56.9834 18.6934 56.9834 19.2266V19.3838C56.9834 19.917 56.9059 20.4115 56.751 20.8672C56.596 21.3229 56.3704 21.7217 56.0742 22.0635C55.7826 22.4007 55.4294 22.665 55.0146 22.8564C54.6045 23.0433 54.1396 23.1367 53.6201 23.1367C53.1006 23.1367 52.6335 23.0433 52.2188 22.8564C51.804 22.665 51.4486 22.4007 51.1523 22.0635C50.8607 21.7217 50.6374 21.3229 50.4824 20.8672C50.3275 20.4115 50.25 19.917 50.25 19.3838ZM51.5146 19.2266V19.3838C51.5146 19.7529 51.5579 20.1016 51.6445 20.4297C51.7311 20.7533 51.861 21.0404 52.0342 21.291C52.2119 21.5417 52.4329 21.7399 52.6973 21.8857C52.9616 22.027 53.2692 22.0977 53.6201 22.0977C53.9665 22.0977 54.2695 22.027 54.5293 21.8857C54.7936 21.7399 55.0124 21.5417 55.1855 21.291C55.3587 21.0404 55.4886 20.7533 55.5752 20.4297C55.6663 20.1016 55.7119 19.7529 55.7119 19.3838V19.2266C55.7119 18.862 55.6663 18.5179 55.5752 18.1943C55.4886 17.8662 55.3564 17.5768 55.1787 17.3262C55.0055 17.071 54.7868 16.8704 54.5225 16.7246C54.2627 16.5788 53.9574 16.5059 53.6064 16.5059C53.2601 16.5059 52.9548 16.5788 52.6904 16.7246C52.4307 16.8704 52.2119 17.071 52.0342 17.3262C51.861 17.5768 51.7311 17.8662 51.6445 18.1943C51.5579 18.5179 51.5146 18.862 51.5146 19.2266ZM63.3135 12.3838H64.3525C64.3525 12.8304 64.2842 13.1859 64.1475 13.4502C64.0107 13.71 63.8239 13.9105 63.5869 14.0518C63.3545 14.193 63.0902 14.3001 62.7939 14.373C62.5023 14.446 62.1992 14.5166 61.8848 14.585C61.4928 14.667 61.1283 14.7969 60.791 14.9746C60.4583 15.1478 60.1712 15.3939 59.9297 15.7129C59.6927 16.0319 59.5173 16.4466 59.4033 16.957C59.2939 17.4674 59.2643 18.0986 59.3145 18.8506V19.4795H58.2754V18.8506C58.2754 18.0075 58.3551 17.2715 58.5146 16.6426C58.6787 16.0137 58.9089 15.4827 59.2051 15.0498C59.5013 14.6169 59.8522 14.2728 60.2578 14.0176C60.668 13.7624 61.1191 13.5869 61.6113 13.4912C61.9668 13.4229 62.2721 13.3499 62.5273 13.2725C62.7826 13.1904 62.9762 13.0811 63.1084 12.9443C63.2451 12.8076 63.3135 12.6208 63.3135 12.3838ZM61.8164 16.0273C62.2995 16.0273 62.7301 16.1117 63.1084 16.2803C63.4867 16.4489 63.8079 16.6836 64.0723 16.9844C64.3366 17.2852 64.5371 17.6406 64.6738 18.0508C64.8151 18.4564 64.8857 18.8984 64.8857 19.377V19.5273C64.8857 20.0423 64.8105 20.5208 64.6602 20.9629C64.5143 21.4004 64.2979 21.7832 64.0107 22.1113C63.7282 22.4349 63.3818 22.6878 62.9717 22.8701C62.5661 23.0524 62.1035 23.1436 61.584 23.1436C61.0645 23.1436 60.5996 23.0524 60.1895 22.8701C59.7839 22.6878 59.4375 22.4349 59.1504 22.1113C58.8633 21.7832 58.6445 21.4004 58.4941 20.9629C58.3483 20.5208 58.2754 20.0423 58.2754 19.5273V19.377C58.2754 19.263 58.2959 19.1514 58.3369 19.042C58.3779 18.9326 58.4281 18.821 58.4873 18.707C58.5511 18.5931 58.6081 18.4723 58.6582 18.3447C58.8268 17.9346 59.057 17.554 59.3486 17.2031C59.6449 16.8522 59.998 16.5697 60.4082 16.3555C60.8229 16.1367 61.2923 16.0273 61.8164 16.0273ZM61.5703 17.0596C61.1055 17.0596 60.7227 17.1667 60.4219 17.3809C60.1257 17.5951 59.9046 17.8799 59.7588 18.2354C59.613 18.5863 59.54 18.9668 59.54 19.377V19.5273C59.54 19.8737 59.5811 20.2018 59.6631 20.5117C59.7451 20.8216 59.8682 21.0973 60.0322 21.3389C60.2008 21.5758 60.4128 21.7627 60.668 21.8994C60.9277 22.0361 61.2331 22.1045 61.584 22.1045C61.9349 22.1045 62.238 22.0361 62.4932 21.8994C62.7484 21.7627 62.958 21.5758 63.1221 21.3389C63.2861 21.0973 63.4092 20.8216 63.4912 20.5117C63.5732 20.2018 63.6143 19.8737 63.6143 19.5273V19.377C63.6143 19.0671 63.5732 18.7731 63.4912 18.4951C63.4092 18.2171 63.2839 17.971 63.1152 17.7568C62.9512 17.5426 62.7393 17.374 62.4795 17.251C62.2243 17.1234 61.9212 17.0596 61.5703 17.0596ZM70.6826 21.7354V17.9277C70.6826 17.6361 70.6234 17.3831 70.5049 17.1689C70.391 16.9502 70.2178 16.7816 69.9854 16.6631C69.7529 16.5446 69.4658 16.4854 69.124 16.4854C68.805 16.4854 68.5247 16.54 68.2832 16.6494C68.0462 16.7588 67.8594 16.9023 67.7227 17.0801C67.5905 17.2578 67.5244 17.4492 67.5244 17.6543H66.2598C66.2598 17.39 66.3281 17.1279 66.4648 16.8682C66.6016 16.6084 66.7975 16.3737 67.0527 16.1641C67.3125 15.9499 67.6224 15.7812 67.9824 15.6582C68.347 15.5306 68.7526 15.4668 69.1992 15.4668C69.737 15.4668 70.2109 15.5579 70.6211 15.7402C71.0358 15.9225 71.3594 16.1982 71.5918 16.5674C71.8288 16.932 71.9473 17.39 71.9473 17.9414V21.3867C71.9473 21.6328 71.9678 21.8949 72.0088 22.1729C72.0544 22.4508 72.1204 22.6901 72.207 22.8906V23H70.8877C70.8239 22.8542 70.7738 22.6605 70.7373 22.4189C70.7008 22.1729 70.6826 21.945 70.6826 21.7354ZM70.9014 18.5156L70.915 19.4043H69.6367C69.2767 19.4043 68.9554 19.4339 68.6729 19.4932C68.3903 19.5479 68.1533 19.6322 67.9619 19.7461C67.7705 19.86 67.6247 20.0036 67.5244 20.1768C67.4242 20.3454 67.374 20.5436 67.374 20.7715C67.374 21.0039 67.4264 21.2158 67.5312 21.4072C67.6361 21.5986 67.7933 21.7513 68.0029 21.8652C68.2171 21.9746 68.4792 22.0293 68.7891 22.0293C69.1764 22.0293 69.5182 21.9473 69.8145 21.7832C70.1107 21.6191 70.3454 21.4186 70.5186 21.1816C70.6963 20.9447 70.792 20.7145 70.8057 20.4912L71.3457 21.0996C71.3138 21.291 71.2272 21.5029 71.0859 21.7354C70.9447 21.9678 70.7555 22.1911 70.5186 22.4053C70.2861 22.6149 70.0081 22.7904 69.6846 22.9316C69.3656 23.0684 69.0055 23.1367 68.6045 23.1367C68.1032 23.1367 67.6634 23.0387 67.2852 22.8428C66.9115 22.6468 66.6198 22.3848 66.4102 22.0566C66.2051 21.724 66.1025 21.3525 66.1025 20.9424C66.1025 20.5459 66.18 20.1973 66.335 19.8965C66.4899 19.5911 66.7132 19.3382 67.0049 19.1377C67.2965 18.9326 67.6475 18.7777 68.0576 18.6729C68.4678 18.568 68.9258 18.5156 69.4316 18.5156H70.9014ZM77.4092 19.7461H74.9824L74.9688 18.7344H76.9512C77.3431 18.7344 77.6689 18.6956 77.9287 18.6182C78.193 18.5407 78.3913 18.4245 78.5234 18.2695C78.6556 18.1146 78.7217 17.9232 78.7217 17.6953C78.7217 17.5176 78.6829 17.3626 78.6055 17.2305C78.5326 17.0938 78.4209 16.9821 78.2705 16.8955C78.1201 16.8044 77.9333 16.7383 77.71 16.6973C77.4912 16.6517 77.2337 16.6289 76.9375 16.6289H75.3174V23H74.0527V15.6035H76.9375C77.4069 15.6035 77.8285 15.6445 78.2021 15.7266C78.5804 15.8086 78.9017 15.9339 79.166 16.1025C79.4349 16.2666 79.64 16.4762 79.7812 16.7314C79.9225 16.9867 79.9932 17.2874 79.9932 17.6338C79.9932 17.8571 79.9476 18.069 79.8564 18.2695C79.7653 18.4701 79.6309 18.6478 79.4531 18.8027C79.2754 18.9577 79.0566 19.0853 78.7969 19.1855C78.5371 19.2812 78.2386 19.3428 77.9014 19.3701L77.4092 19.7461ZM77.4092 23H74.5244L75.1533 21.9746H77.4092C77.7601 21.9746 78.0518 21.9313 78.2842 21.8447C78.5166 21.7536 78.6898 21.626 78.8037 21.4619C78.9222 21.2933 78.9814 21.0928 78.9814 20.8604C78.9814 20.6279 78.9222 20.4297 78.8037 20.2656C78.6898 20.097 78.5166 19.9694 78.2842 19.8828C78.0518 19.7917 77.7601 19.7461 77.4092 19.7461H75.4883L75.502 18.7344H77.9014L78.3594 19.1172C78.765 19.1491 79.109 19.2493 79.3916 19.418C79.6742 19.5866 79.8883 19.8008 80.0342 20.0605C80.18 20.3158 80.2529 20.5938 80.2529 20.8945C80.2529 21.2409 80.1868 21.5462 80.0547 21.8105C79.9271 22.0749 79.7402 22.2959 79.4941 22.4736C79.248 22.6468 78.9495 22.779 78.5986 22.8701C78.2477 22.9567 77.8512 23 77.4092 23ZM83.3154 20.9971L86.7266 15.6035H87.998V23H86.7266V17.6064L83.3154 23H82.0576V15.6035H83.3154V20.9971ZM93.043 15.6035V23H91.7715V15.6035H93.043ZM95.5244 15.6035V16.6289H89.3379V15.6035H95.5244ZM97.8076 18.1465H100.029C100.626 18.1465 101.13 18.2513 101.54 18.4609C101.95 18.666 102.26 18.9508 102.47 19.3154C102.684 19.6755 102.791 20.0856 102.791 20.5459C102.791 20.8877 102.732 21.209 102.613 21.5098C102.495 21.806 102.317 22.0658 102.08 22.2891C101.848 22.5124 101.558 22.6878 101.212 22.8154C100.87 22.9385 100.476 23 100.029 23H96.8848V15.6035H98.1494V21.9609H100.029C100.394 21.9609 100.686 21.8949 100.904 21.7627C101.123 21.6305 101.28 21.4596 101.376 21.25C101.472 21.0404 101.52 20.8216 101.52 20.5938C101.52 20.3704 101.472 20.1517 101.376 19.9375C101.28 19.7233 101.123 19.5456 100.904 19.4043C100.686 19.2585 100.394 19.1855 100.029 19.1855H97.8076V18.1465Z" fill="white"/>
<rect width="35" height="37" rx="17.5" fill="#AA68FE"/>
<path d="M22.5505 17.6611V18.8506H15.7282V17.6611H22.5505ZM19.7751 14.7559V22.002H18.5104V14.7559H19.7751Z" fill="white"/>
</svg>
